<svg width="32" height="32" viewBox="0 0 32 32" fill="none" xmlns="http://www.w3.org/2000/svg">
<path d="M9 10H23C24.1046 10 25 10.8954 25 12V20C25 21.1046 24.1046 22 23 22H9C7.89543 22 7 21.1046 7 20V12C7 10.8954 7.89543 10 9 10Z" stroke="currentColor" stroke-width="2" stroke-linejoin="round"/>
<path d="M11 14H21M11 18H17" stroke="currentColor" stroke-width="2" stroke-linecap="round"/>
<path d="M10 7V10M14 7V10M18 7V10M22 7V10M10 22V25M14 22V25M18 22V25M22 22V25" stroke="currentColor" stroke-width="2" stroke-linecap="round"/>
</svg>
